<svg id="SvgjsSvg1000" xmlns="http://www.w3.org/2000/svg" version="1.1" xmlns:xlink="http://www.w3.org/1999/xlink" xmlns:svgjs="http://svgjs.com/svgjs" width="22" height="12" viewBox="0 0 22 12"><title>arrow</title><desc>Created with Avocode.</desc><defs id="SvgjsDefs1001"></defs><path id="SvgjsPath1007" d="M378.217 660.221C378.072 660.078 378 659.901 378 659.704C378 659.511 378.072 659.333 378.217 659.192C378.507 658.907 378.978 658.907 379.267 659.192L388.5 668.242L397.733 659.192C398.023 658.907 398.493 658.907 398.783 659.192C399.07300000000004 659.474 399.07300000000004 659.937 398.783 660.221L389.02500000000003 669.7860000000001C388.73600000000005 670.07 388.26500000000004 670.07 387.975 669.7860000000001Z " fill="#f7364d" fill-opacity="1" transform="matrix(1,0,0,1,-378,-658)"></path><path id="SvgjsPath1008" d="M378.217 660.221C378.072 660.078 378 659.901 378 659.704C378 659.511 378.072 659.333 378.217 659.192C378.507 658.907 378.978 658.907 379.267 659.192L388.5 668.242L397.733 659.192C398.023 658.907 398.493 658.907 398.783 659.192C399.07300000000004 659.474 399.07300000000004 659.937 398.783 660.221L389.02500000000003 669.7860000000001C388.73600000000005 670.07 388.26500000000004 670.07 387.975 669.7860000000001Z " fill="#e42a1f" fill-opacity="1" transform="matrix(1,0,0,1,-378,-658)"></path></svg>